<svg xmlns="http://www.w3.org/2000/svg" width="1024" height="1024" viewBox="0 0 1024 1024">
  <defs>
    <linearGradient id="bg" x1="0" y1="0" x2="0" y2="1">
      <stop offset="0" stop-color="#1b2c4a"/>
      <stop offset="1" stop-color="#0b1220"/>
    </linearGradient>
    <linearGradient id="node" x1="0" y1="0" x2="0" y2="1">
      <stop offset="0" stop-color="#5eead4"/>
      <stop offset="1" stop-color="#14b8a6"/>
    </linearGradient>
  </defs>
  <rect x="100" y="100" width="824" height="824" rx="190" fill="url(#bg)"/>
  <rect x="100" y="100" width="824" height="824" rx="190" fill="none" stroke="#2dd4bf" stroke-opacity="0.35" stroke-width="6"/>
  <g fill="none" stroke="#7dd3c8" stroke-opacity="0.85" stroke-width="22" stroke-linecap="round">
    <path d="M512 352 V418 C512 470 318 440 318 520 V560"/>
    <path d="M512 352 V418 C512 470 706 440 706 520 V560"/>
    <path d="M318 640 V672 C318 716 232 700 232 740"/>
    <path d="M318 640 V672 C318 716 404 700 404 740"/>
    <path d="M706 640 V690 C706 726 706 726 706 740"/>
  </g>
  <rect x="412" y="212" width="200" height="140" rx="36" fill="#f59e0b"/>
  <rect x="218" y="520" width="200" height="120" rx="32" fill="url(#node)"/>
  <rect x="606" y="520" width="200" height="120" rx="32" fill="url(#node)"/>
  <rect x="160" y="740" width="144" height="100" rx="26" fill="url(#node)" fill-opacity="0.9"/>
  <rect x="332" y="740" width="144" height="100" rx="26" fill="url(#node)" fill-opacity="0.9"/>
  <rect x="634" y="740" width="144" height="100" rx="26" fill="url(#node)" fill-opacity="0.9"/>
</svg>
